<svg width="60" height="61" viewBox="0 0 60 61" fill="none" xmlns="http://www.w3.org/2000/svg">
<mask id="mask0_211_744" style="mask-type:luminance" maskUnits="userSpaceOnUse" x="0" y="0" width="60" height="61">
<path d="M0 0.898441H60V60.8984H0V0.898441Z" fill="white"/>
</mask>
<g mask="url(#mask0_211_744)">
<path d="M51.881 34.1797C52.7362 31.7604 53.2031 29.1576 53.2031 26.4453C53.2031 13.6305 42.8148 3.24219 30 3.24219C17.1853 3.24219 6.79688 13.6305 6.79688 26.4453C6.79688 29.1576 7.26387 31.7604 8.11898 34.1797" stroke="#0B54A0" stroke-width="2.4" stroke-miterlimit="10" stroke-linecap="round" stroke-linejoin="round"/>
<path d="M28.1459 17.5847C28.82 15.9178 31.18 15.9178 31.8541 17.5847L32.6494 19.5513C32.9359 20.2597 33.6011 20.7429 34.3634 20.7965L36.4794 20.9452C38.273 21.0712 39.0023 23.3157 37.6253 24.4719L36.0008 25.836C35.4156 26.3274 35.1615 27.1093 35.3461 27.8508L35.8586 29.9093C36.293 31.6541 34.3837 33.0412 32.8586 32.0889L31.0593 30.9654C30.4111 30.5607 29.5889 30.5607 28.9407 30.9654L27.1414 32.0889C25.6163 33.0412 23.707 31.6541 24.1414 29.9093L24.6539 27.8508C24.8385 27.1093 24.5844 26.3274 23.9992 25.836L22.3747 24.4719C20.9977 23.3157 21.727 21.0712 23.5206 20.9452L25.6366 20.7965C26.3989 20.7429 27.0641 20.2597 27.3506 19.5513L28.1459 17.5847Z" stroke="#19DFC9" stroke-width="2.4" stroke-miterlimit="10" stroke-linecap="round" stroke-linejoin="round"/>
<path d="M36.3281 46.3761C34.3942 46.6469 32.2905 46.8359 30.187 46.8359H30.1645C28.061 46.8359 25.9574 46.6469 24.0234 46.3761" stroke="#0B54A0" stroke-width="2.4" stroke-miterlimit="10" stroke-linecap="round" stroke-linejoin="round"/>
<path d="M7.14846 55.2734H4.00749C2.55284 55.2734 1.80131 53.5357 2.79764 52.4758L5.62503 49.4141L2.79764 46.3524C1.80131 45.2925 2.55284 43.5547 4.00749 43.5547H10.4297C13.148 43.5547 15.3516 45.7583 15.3516 48.4766V51.6453C15.3516 54.4102 17.283 56.8036 19.9881 57.3757C22.7697 57.9639 26.4471 58.5547 30 58.5547C33.5529 58.5547 37.2304 57.9639 40.0119 57.3757C42.7171 56.8036 44.6485 54.4102 44.6485 51.6453V48.4766C44.6485 45.7583 46.8521 43.5547 49.5703 43.5547H55.9926C57.4472 43.5547 58.1987 45.2925 57.2024 46.3524L54.375 49.4141L57.2024 52.4758C58.1987 53.5357 57.4472 55.2734 55.9926 55.2734H52.8516" stroke="#0B54A0" stroke-width="2.4" stroke-miterlimit="10" stroke-linecap="round" stroke-linejoin="round"/>
</g>
</svg>
