<svg width="60" height="61" viewBox="0 0 60 61" fill="none" xmlns="http://www.w3.org/2000/svg">
<path d="M18.7031 47.8438H39.414V34.6641H1.75781V44.0781C1.75781 45.0769 2.15414 46.0352 2.86113 46.7413C3.56719 47.4473 4.52461 47.8437 5.5234 47.8437C6.56086 47.8437 7.40625 47.8437 7.40625 47.8437" stroke="#0B54A0" stroke-width="2.4" stroke-miterlimit="10" stroke-linecap="round" stroke-linejoin="round"/>
<path d="M39.414 34.664V12.0703C39.414 11.0724 39.0177 10.1141 38.3107 9.40801C37.6046 8.70195 36.6472 8.30469 35.6484 8.30469C28.4336 8.30469 12.7384 8.30469 5.5234 8.30469C4.52461 8.30469 3.56719 8.70195 2.86113 9.40801C2.15414 10.1141 1.75781 11.0724 1.75781 12.0703C1.75781 19.3549 1.75781 34.664 1.75781 34.664H39.414Z" stroke="#0B54A0" stroke-width="2.4" stroke-miterlimit="10" stroke-linecap="round" stroke-linejoin="round"/>
<path d="M19.984 14.8985C19.984 14.8985 15.8997 19.4824 16.0019 23.4927C16.1311 28.5715 23.8369 28.5715 23.9662 23.4927C24.0684 19.4824 19.984 14.8985 19.984 14.8985Z" stroke="#19DFC9" stroke-width="2.4" stroke-miterlimit="10" stroke-linecap="round" stroke-linejoin="round"/>
<path d="M50.7109 47.8436H54.4765C55.4753 47.8436 56.4327 47.4473 57.1388 46.7412C57.8458 46.0352 58.2421 45.0768 58.2421 44.078C58.2421 40.2484 58.2421 34.1613 58.2421 29.0156C58.2421 23.8171 54.0275 19.6016 48.8281 19.6016H39.4141V47.8438" stroke="#0B54A0" stroke-width="2.4" stroke-miterlimit="10" stroke-linecap="round" stroke-linejoin="round"/>
<path d="M13.0547 53.4922C16.1742 53.4922 18.7031 50.9633 18.7031 47.8438C18.7031 44.7242 16.1742 42.1953 13.0547 42.1953C9.93514 42.1953 7.40625 44.7242 7.40625 47.8438C7.40625 50.9633 9.93514 53.4922 13.0547 53.4922Z" stroke="#19DFC9" stroke-width="2.4" stroke-miterlimit="10" stroke-linecap="round" stroke-linejoin="round"/>
<path d="M45.0625 53.4922C48.182 53.4922 50.7109 50.9633 50.7109 47.8438C50.7109 44.7242 48.182 42.1953 45.0625 42.1953C41.943 42.1953 39.4141 44.7242 39.4141 47.8438C39.4141 50.9633 41.943 53.4922 45.0625 53.4922Z" stroke="#19DFC9" stroke-width="2.4" stroke-miterlimit="10" stroke-linecap="round" stroke-linejoin="round"/>
<path d="M48.8281 19.6016V34.664H58.2421" stroke="#0B54A0" stroke-width="2.4" stroke-miterlimit="10" stroke-linecap="round" stroke-linejoin="round"/>
</svg>
