<svg width="25" height="25" viewBox="0 0 25 25" fill="none" xmlns="http://www.w3.org/2000/svg">
<path d="M20.5 13.9492C20.5 18.9492 17 21.4492 12.84 22.8992C12.6222 22.973 12.3855 22.9695 12.17 22.8892C8 21.4492 4.5 18.9492 4.5 13.9492V6.94918C4.5 6.68396 4.60536 6.42961 4.79289 6.24207C4.98043 6.05454 5.23478 5.94918 5.5 5.94918C7.5 5.94918 10 4.74918 11.74 3.22918C11.9519 3.04818 12.2214 2.94873 12.5 2.94873C12.7786 2.94873 13.0481 3.04818 13.26 3.22918C15.01 4.75918 17.5 5.94918 19.5 5.94918C19.7652 5.94918 20.0196 6.05454 20.2071 6.24207C20.3946 6.42961 20.5 6.68396 20.5 6.94918V13.9492Z" stroke="#18DECA" stroke-width="2" stroke-linecap="round" stroke-linejoin="round"/>
<path d="M9.5 12.9492L11.5 14.9492L15.5 10.9492" stroke="#18DECA" stroke-width="2" stroke-linecap="round" stroke-linejoin="round"/>
</svg>
