<svg width="24" height="25" viewBox="0 0 24 25" fill="none" xmlns="http://www.w3.org/2000/svg">
<path d="M12.0344 13.6303C11.9984 13.5398 11.9896 13.4408 12.0093 13.3455C12.0289 13.2501 12.076 13.1626 12.1449 13.0937C12.2137 13.0249 12.3012 12.9777 12.3966 12.9581C12.492 12.9385 12.591 12.9472 12.6814 12.9833L21.6814 16.4833C21.7779 16.521 21.8603 16.5877 21.9172 16.6743C21.9741 16.7608 22.0028 16.8629 21.9991 16.9665C21.9955 17.07 21.9598 17.1699 21.897 17.2522C21.8342 17.3346 21.7473 17.3954 21.6484 17.4263L18.2044 18.4943C18.049 18.5423 17.9077 18.6275 17.7927 18.7425C17.6777 18.8576 17.5925 18.9989 17.5444 19.1543L16.4774 22.5973C16.4466 22.6962 16.3857 22.783 16.3034 22.8459C16.221 22.9087 16.1211 22.9444 16.0176 22.948C15.9141 22.9516 15.812 22.923 15.7254 22.8661C15.6389 22.8092 15.5721 22.7268 15.5344 22.6303L12.0344 13.6303Z" stroke="#18DECA" stroke-width="2" stroke-linecap="round" stroke-linejoin="round"/>
<path d="M21 11.9492V5.94922C21 5.41879 20.7893 4.91008 20.4142 4.53501C20.0391 4.15993 19.5304 3.94922 19 3.94922H5C4.46957 3.94922 3.96086 4.15993 3.58579 4.53501C3.21071 4.91008 3 5.41879 3 5.94922V19.9492C3 20.4797 3.21071 20.9884 3.58579 21.3634C3.96086 21.7385 4.46957 21.9492 5 21.9492H11" stroke="#18DECA" stroke-width="2" stroke-linecap="round" stroke-linejoin="round"/>
</svg>
