<svg width="128" height="51" viewBox="0 0 128 51" fill="none" xmlns="http://www.w3.org/2000/svg">
<g clip-path="url(#clip0_211_4277)">
<path fill-rule="evenodd" clip-rule="evenodd" d="M32.8208 2.14403C30.0242 0.991307 26.9579 0.347656 23.7391 0.347656C20.5203 0.347656 17.454 0.985456 14.6574 2.14403C11.7552 3.34356 9.14035 5.10482 6.94761 7.29324C4.76073 9.4758 2.99598 12.0855 1.78821 14.9878C0.633206 17.7789 -0.0117188 20.8392 -0.0117188 24.0516C-0.0117188 27.264 0.627343 30.3243 1.78821 33.1154C2.99011 36.0118 4.75486 38.6215 6.94761 40.8099C9.13449 42.9925 11.7494 44.7537 14.6574 45.9591C17.454 47.1118 20.5203 47.7555 23.7391 47.7555C26.9579 47.7555 30.0242 47.1177 32.8208 45.9591C35.723 44.7596 38.3379 42.9983 40.5306 40.8099C42.7175 38.6215 44.4822 36.0176 45.69 33.1154C46.845 30.3243 47.4899 27.264 47.4899 24.0516C47.4899 20.8392 46.8509 17.7789 45.69 14.9878C44.4881 12.0914 42.7233 9.48165 40.5306 7.29324C38.3379 5.10482 35.7288 3.34941 32.8208 2.14403ZM31.4899 5.35643C33.97 6.38042 36.2037 7.88423 38.0682 9.74496C39.9326 11.6057 41.4394 13.8351 42.4654 16.3102C43.4562 18.6917 44.0015 21.3073 44.0015 24.0399C44.0015 26.7725 43.4562 29.388 42.4654 31.7695C41.4394 34.2447 39.9326 36.474 38.0682 38.3348C36.2037 40.1955 33.97 41.6993 31.4899 42.7233C29.1037 43.7122 26.483 44.2564 23.745 44.2564C21.007 44.2564 18.3862 43.7122 16 42.7233C13.52 41.6993 11.2862 40.1955 9.42177 38.3348C7.55735 36.474 6.05057 34.2447 5.02456 31.7695C4.03372 29.388 3.48846 26.7725 3.48846 24.0399C3.48846 21.3073 4.03372 18.6917 5.02456 16.3102C6.05057 13.8351 7.55735 11.6057 9.42177 9.74496C11.2862 7.88423 13.52 6.38042 16 5.35643C18.3862 4.36755 21.007 3.82337 23.745 3.82337C26.483 3.82337 29.1037 4.36755 31.4899 5.35643Z" fill="#BACEE2"/>
<path fill-rule="evenodd" clip-rule="evenodd" d="M29.3326 10.5639C27.6148 9.85005 25.7269 9.45801 23.7452 9.45801C21.7636 9.45801 19.8757 9.85005 18.1579 10.5639C16.3696 11.3012 14.7632 12.3837 13.4147 13.7295C12.0662 15.0753 10.9816 16.6786 10.2429 18.4633C9.53345 20.1777 9.13477 22.0619 9.13477 24.0396C9.13477 26.0174 9.52758 27.9015 10.2429 29.616C10.9816 31.4007 12.0662 33.0039 13.4147 34.3498C14.7632 35.6956 16.3696 36.7781 18.1579 37.5154C19.8757 38.2292 21.7636 38.6213 23.7452 38.6213C25.7269 38.6213 27.6148 38.2292 29.3326 37.5154C31.1208 36.7781 32.7273 35.6956 34.0758 34.3498C35.4242 33.0039 36.5089 31.4007 37.2476 29.616C37.9629 27.9015 38.3557 26.0174 38.3557 24.0396C38.3557 22.0619 37.9629 20.1777 37.2476 18.4633C36.5089 16.6786 35.4242 15.0753 34.0758 13.7295C32.7273 12.3837 31.1208 11.3012 29.3326 10.5639ZM27.9666 13.8465C29.3209 14.4083 30.5404 15.2275 31.5547 16.2398C32.569 17.252 33.3957 18.4691 33.9526 19.8208C34.492 21.1198 34.791 22.5475 34.791 24.0396C34.791 25.5317 34.492 26.9595 33.9526 28.2585C33.3898 29.6101 32.569 30.8272 31.5547 31.8395C30.5404 32.8518 29.3209 33.6769 27.9666 34.2327C26.665 34.7711 25.2344 35.0695 23.7394 35.0695C22.2443 35.0695 20.8138 34.7711 19.5122 34.2327C18.1578 33.671 16.9384 32.8518 15.9241 31.8395C14.9039 30.8214 14.0831 29.6101 13.5261 28.2585C12.9867 26.9595 12.6877 25.5317 12.6877 24.0396C12.6877 22.5475 12.9867 21.1198 13.5261 19.8208C14.089 18.4691 14.9098 17.252 15.9241 16.2398C16.9442 15.2216 18.1578 14.4024 19.5122 13.8465C20.8138 13.3082 22.2443 13.0098 23.7394 13.0098C25.2344 13.0098 26.665 13.3082 27.9666 13.8465Z" fill="#BACEE2"/>
<path fill-rule="evenodd" clip-rule="evenodd" d="M25.9081 18.8207C25.2397 18.5457 24.5127 18.3936 23.7447 18.3936C22.9766 18.3936 22.2437 18.5457 21.5812 18.8207C20.8894 19.1074 20.2679 19.5287 19.7461 20.0495C19.2243 20.5703 18.8022 21.1905 18.5149 21.881C18.2394 22.548 18.0869 23.2736 18.0869 24.0401C18.0869 24.8067 18.2394 25.5322 18.5149 26.1934C18.8022 26.8839 19.2243 27.5041 19.7461 28.0249L19.7989 28.0776C20.309 28.5808 20.9129 28.9845 21.5812 29.2596C22.2496 29.5346 22.9766 29.6867 23.7447 29.6867C24.5127 29.6867 25.2456 29.5346 25.9081 29.2596C26.5765 28.9845 27.1804 28.5808 27.6904 28.0834L27.7432 28.0249C28.265 27.5041 28.6871 26.8839 28.9744 26.1934C29.25 25.5322 29.4024 24.8008 29.4024 24.0401C29.4024 23.2795 29.25 22.5422 28.9744 21.881C28.6871 21.1905 28.265 20.5703 27.7432 20.0495C27.2214 19.5287 26.5999 19.1074 25.9081 18.8207ZM24.5713 22.0331C24.841 22.1443 25.0814 22.3081 25.2808 22.5071C25.4801 22.706 25.6443 22.9459 25.7498 23.2151C25.8553 23.4725 25.914 23.7534 25.914 24.046C25.914 24.3386 25.8553 24.6194 25.7498 24.8769C25.6384 25.146 25.4801 25.3859 25.2808 25.5849L25.1518 25.7136L25.14 25.7019C24.97 25.8424 24.7765 25.9652 24.5655 26.0472C24.3075 26.1525 24.0261 26.211 23.7329 26.211C23.4398 26.211 23.1584 26.1525 22.9004 26.0472C22.6893 25.9594 22.4959 25.8424 22.3258 25.7019L22.3141 25.7136L22.1851 25.5849C21.9858 25.3859 21.8275 25.146 21.7161 24.8769C21.6105 24.6194 21.5519 24.3386 21.5519 24.046C21.5519 23.7534 21.6105 23.4725 21.7161 23.2151C21.8275 22.9459 21.9916 22.706 22.191 22.5071C22.3903 22.3081 22.6307 22.1443 22.9004 22.039C23.1584 21.9336 23.4398 21.8751 23.7329 21.8751C24.0261 21.8751 24.3075 21.9336 24.5655 22.039L24.5713 22.0331Z" fill="#04BBEE"/>
<path fill-rule="evenodd" clip-rule="evenodd" d="M73.8666 16.4329C74.8809 19.0895 77.2026 21.155 80.7731 21.155C81.7347 21.155 82.6258 20.997 83.4466 20.6869C84.2733 20.3709 85.0296 19.9028 85.7097 19.2767L86.0088 19.0075V19.4113C86.0322 20.2071 86.4719 20.7161 87.0348 20.9385C87.2576 21.0263 87.5038 21.0731 87.75 21.0731C87.9963 21.0731 88.2367 21.0263 88.4595 20.9326C89.0047 20.7044 89.4327 20.1837 89.4327 19.3762V12.7583C89.3624 10.5289 88.4653 8.54528 87.0113 7.12925C85.5749 5.73077 83.5991 4.88232 81.3418 4.88232C77.4371 4.88232 74.9688 7.02978 73.8959 9.76822C73.4796 10.8273 73.2744 11.9742 73.2686 13.1152C73.2686 14.2562 73.4679 15.3972 73.8666 16.4505V16.4329ZM85.7449 15.0754C85.1059 16.7665 83.646 18.083 81.3712 18.083C79.0963 18.083 77.5661 16.7606 76.9153 15.0696C76.6632 14.4201 76.5401 13.712 76.5401 13.004C76.5401 12.296 76.6632 11.588 76.9153 10.9385C77.5661 9.2533 79.0494 7.93089 81.3712 7.93089C83.6929 7.93089 85.1117 9.2533 85.7449 10.9385C85.9912 11.588 86.1143 12.296 86.1143 13.004C86.1143 13.712 85.9912 14.4201 85.7449 15.0696V15.0754Z" fill="#0155AE"/>
<path fill-rule="evenodd" clip-rule="evenodd" d="M93.7308 20.6692C94.0298 20.9676 94.4578 21.1548 94.9503 21.1548C95.4428 21.1548 95.8766 20.9734 96.1756 20.6809C96.4805 20.3766 96.6564 19.9494 96.6564 19.4521V11.2075L100.608 16.8716C100.96 17.3748 101.411 17.7552 101.904 17.9015C102.332 18.0302 102.795 17.9775 103.258 17.685C103.915 17.2695 105.92 14.338 107.104 12.6235C107.374 12.2315 107.597 11.9038 107.778 11.6522L108.113 11.1841V19.4579C108.113 20.2713 108.558 20.792 109.127 21.0202C109.35 21.108 109.59 21.1548 109.83 21.1548C110.071 21.1548 110.311 21.108 110.534 21.0202C111.091 20.7979 111.525 20.2771 111.525 19.4521V6.80139C111.525 6.44446 111.443 6.14019 111.302 5.89443C111.15 5.63112 110.933 5.43217 110.681 5.29759C110.423 5.16301 110.129 5.09279 109.83 5.09279C109.496 5.09279 109.156 5.18056 108.851 5.35025C108.107 5.77155 105.023 10.3766 103.387 12.8049C103.012 13.3608 102.713 13.8055 102.537 14.063L102.384 14.2795L96.6974 6.07582C96.3984 5.64867 96.0291 5.36781 95.6421 5.22152C95.3372 5.1045 95.0265 5.06939 94.7333 5.09864C94.4402 5.13375 94.1646 5.23323 93.9301 5.39706C93.6897 5.56675 93.4963 5.79496 93.379 6.08168L93.2441 19.4404C93.2441 19.926 93.4259 20.3532 93.7308 20.6633V20.6692Z" fill="#0155AE"/>
<path fill-rule="evenodd" clip-rule="evenodd" d="M57.7849 21.1257C57.8846 21.1433 57.9901 21.155 58.0957 21.155H64.8381C65.2954 21.155 65.7292 21.114 66.1279 21.038C66.5501 20.956 66.937 20.839 67.3005 20.681C67.6757 20.523 68.0217 20.3241 68.3265 20.0959C68.649 19.8618 68.9363 19.5927 69.1825 19.3001C69.3174 19.1421 69.4405 18.9783 69.5577 18.7969C69.675 18.6155 69.7805 18.4341 69.8685 18.2527C69.9623 18.0655 70.0385 17.8724 70.1089 17.6734C70.1792 17.4745 70.232 17.2755 70.2789 17.0707C70.3199 16.8718 70.3492 16.667 70.3668 16.468C70.3844 16.2632 70.3903 16.0584 70.3844 15.8595C70.3786 15.6605 70.3551 15.4616 70.3258 15.2626C70.2906 15.0696 70.2496 14.8765 70.1909 14.6892C70.1147 14.4376 70.0151 14.1918 69.8919 13.9636C69.7747 13.7354 69.6281 13.5189 69.4698 13.32C69.3232 13.1386 69.1591 12.9689 68.9773 12.8109C68.8014 12.6588 68.608 12.5184 68.3969 12.3955L68.1975 12.2784L68.3617 12.1146C68.4203 12.0561 68.479 11.9917 68.5435 11.9215C68.6021 11.8571 68.6549 11.7869 68.7076 11.7167C68.7721 11.6289 68.8366 11.5412 68.8894 11.4534C68.9421 11.3656 68.9949 11.272 69.0477 11.1784C69.1297 11.0145 69.206 10.8449 69.2646 10.6693C69.3232 10.4938 69.3701 10.3124 69.4053 10.131C69.4405 9.94375 69.4581 9.7565 69.4698 9.56926C69.4757 9.38202 69.4698 9.18892 69.4522 8.99582C69.4346 8.80858 69.4053 8.62719 69.3584 8.43994C69.3174 8.2527 69.2587 8.07131 69.1884 7.89577C69.118 7.72022 69.0418 7.54468 68.9539 7.37499C68.8601 7.2053 68.7604 7.04147 68.649 6.88348C68.5435 6.73719 68.4321 6.59676 68.3089 6.46803C68.1917 6.3393 68.0568 6.21057 67.922 6.09354C67.7871 5.97652 67.6406 5.86534 67.4881 5.76587C67.3416 5.66639 67.1832 5.57277 67.0191 5.49085C66.6849 5.31531 66.2804 5.19243 65.8289 5.09881C65.3775 5.00519 64.8732 4.94667 64.3573 4.91157C63.9293 4.88231 63.2023 4.87061 62.4343 4.87061C61.3086 4.87061 60.0774 4.88231 59.4676 4.89401H59.3679C58.9399 4.90571 58.5295 4.91742 58.1074 4.91742C58.0253 4.91742 57.9491 4.91742 57.8729 4.93497C57.7967 4.94667 57.7204 4.96423 57.6442 4.98178C57.568 5.00519 57.4977 5.02859 57.4273 5.0637C57.3569 5.09296 57.2924 5.13392 57.228 5.17488C57.1635 5.21584 57.1048 5.26265 57.0462 5.31531C56.9934 5.36212 56.9407 5.42063 56.8879 5.47915C56.841 5.53766 56.7941 5.59618 56.7589 5.66639C56.7179 5.73076 56.6886 5.80097 56.6592 5.87119L56.6417 5.91215L56.542 19.5927C56.542 19.698 56.5537 19.8033 56.5713 19.9028C56.5889 20.0023 56.6182 20.1017 56.6592 20.1954C56.7003 20.289 56.7472 20.3826 56.8 20.4645C56.8586 20.5464 56.9231 20.6284 56.9934 20.6986C57.0697 20.7688 57.1459 20.839 57.228 20.8917C57.3159 20.9502 57.4038 20.997 57.4977 21.0321C57.5915 21.0672 57.6911 21.1023 57.7908 21.1199L57.7849 21.1257ZM60.3412 18.2L59.6552 18.1883V14.1041H64.8381C65.055 14.1041 65.2602 14.1158 65.4478 14.145C65.6472 14.1743 65.8289 14.2153 65.9931 14.2679C66.1631 14.3264 66.3155 14.3966 66.4562 14.4727C66.6028 14.5605 66.7318 14.66 66.8373 14.7653C66.896 14.8238 66.9546 14.8882 67.0074 14.9584C67.0601 15.0286 67.107 15.0988 67.1422 15.1749C67.1832 15.2509 67.2184 15.3329 67.2477 15.4089C67.2771 15.4909 67.3005 15.5786 67.3181 15.6605C67.3357 15.7425 67.3474 15.8244 67.3474 15.9122C67.3474 15.9941 67.3474 16.0818 67.3474 16.1696C67.3474 16.2574 67.3298 16.3393 67.3122 16.4271C67.2946 16.5148 67.2712 16.6026 67.2477 16.6845C67.2067 16.8191 67.1481 16.9537 67.0777 17.0824C67.0074 17.2112 66.9253 17.3282 66.8373 17.4335C66.7494 17.5388 66.6497 17.6383 66.5383 17.7202C66.4328 17.8021 66.3155 17.8724 66.1924 17.9309C65.9989 18.0186 65.7292 18.083 65.4068 18.124C65.1019 18.1649 64.7384 18.1942 64.3632 18.2059C64.0466 18.2176 63.4134 18.2234 62.7274 18.2176C61.7893 18.2176 60.7575 18.2059 60.3529 18.2H60.3412ZM60.4057 11.155L59.6611 11.1374V7.88406H64.4335C64.5801 7.88406 64.7149 7.88991 64.8498 7.90747C64.9846 7.92502 65.1078 7.94843 65.225 7.97769C65.3423 8.00694 65.4537 8.0479 65.5533 8.08886C65.6589 8.13567 65.7527 8.18834 65.8348 8.2527C65.8993 8.29951 65.9579 8.35217 66.0107 8.40484C66.0634 8.4575 66.1162 8.52186 66.1572 8.58038C66.2041 8.64474 66.2393 8.70911 66.2745 8.77932C66.3097 8.84954 66.339 8.92561 66.3566 9.00168C66.3742 9.07189 66.3918 9.14796 66.4035 9.21818C66.4152 9.28839 66.4211 9.36446 66.4211 9.44053C66.4211 9.5166 66.4211 9.59267 66.4093 9.66873C66.4035 9.7448 66.3859 9.82087 66.3683 9.89694C66.3507 9.98471 66.3214 10.0666 66.2921 10.1427C66.2628 10.2246 66.2276 10.3007 66.1865 10.3709C66.1514 10.4411 66.1045 10.5055 66.0576 10.5581C66.0107 10.6167 65.9579 10.6693 65.9051 10.7103C65.5475 10.9853 64.5097 11.1082 63.3841 11.155C62.2877 11.2018 61.0975 11.1784 60.3998 11.155H60.4057Z" fill="#0155AE"/>
<path fill-rule="evenodd" clip-rule="evenodd" d="M93.1801 39.2533C94.2061 41.9274 96.5454 44.0046 100.122 44.0046C101.124 44.0046 102.062 43.8056 102.913 43.4136C103.757 43.0216 104.513 42.4423 105.152 41.6874L105.475 41.3071V41.8045C105.475 43.3726 105.076 44.5722 104.443 45.4382C103.827 46.2866 102.983 46.8191 102.057 47.0824C101.142 47.3457 100.145 47.3457 99.213 47.1175C98.0522 46.8367 96.991 46.2106 96.2992 45.3212C95.8008 44.6834 95.1324 44.5312 94.552 44.6833C94.3292 44.7419 94.1181 44.8413 93.9364 44.9818C93.7546 45.1164 93.6022 45.286 93.4908 45.4791C93.227 45.9355 93.2094 46.5324 93.655 47.1175C94.81 48.6389 96.4926 49.6395 98.3277 50.0842C99.5765 50.3884 100.896 50.4353 102.156 50.207C103.417 49.9788 104.625 49.4873 105.656 48.7032C106.993 47.6968 108.037 46.2106 108.523 44.2152C108.869 42.7875 108.828 39.4171 108.793 37.0649C108.787 36.5324 108.781 36.0526 108.776 35.6956V35.5611C108.705 33.2615 107.832 31.3013 106.407 29.9145C104.982 28.5336 102.995 27.7202 100.691 27.7202C96.7506 27.7202 94.2764 29.8501 93.1977 32.571C92.7814 33.6243 92.5703 34.7711 92.5703 35.9121C92.5703 37.0532 92.7697 38.2 93.1742 39.2474L93.1801 39.2533ZM105.105 38.0011C104.478 39.657 103.036 40.9385 100.691 40.9385C98.8319 40.9385 97.5128 40.09 96.7271 38.8846C96.2816 38.2 96.006 37.3925 95.9122 36.5675C95.8125 35.7425 95.8946 34.8881 96.1408 34.1041C96.6099 32.6354 97.6828 31.389 99.3596 30.956C101.693 30.3475 103.405 31.1784 104.413 32.5827C104.959 33.3375 105.293 34.2562 105.41 35.2041C105.527 36.152 105.428 37.1292 105.099 38.0069L105.105 38.0011ZM112.446 39.2825C113.46 41.9391 115.782 44.0046 119.352 44.0046C120.302 44.0046 121.193 43.8466 122.026 43.5306C122.847 43.2205 123.603 42.7465 124.289 42.1204L124.588 41.8513V42.255C124.611 43.0508 125.057 43.5599 125.62 43.7822C125.848 43.87 126.089 43.9168 126.335 43.9168C126.581 43.9168 126.822 43.87 127.044 43.7705C127.59 43.5423 128.012 43.0216 128.012 42.2141V35.5962C127.942 33.3668 127.044 31.3832 125.596 29.9671C124.16 28.5687 122.184 27.7202 119.927 27.7202C116.022 27.7202 113.554 29.8677 112.481 32.6061C112.065 33.6652 111.859 34.8121 111.854 35.9531C111.854 37.0941 112.047 38.2351 112.452 39.2884L112.446 39.2825ZM124.324 37.925C123.685 39.6161 122.225 40.9326 119.95 40.9326C117.675 40.9326 116.145 39.6102 115.494 37.9192C115.242 37.2638 115.119 36.5616 115.119 35.8536C115.119 35.1456 115.248 34.4376 115.494 33.7881C116.145 32.1029 117.629 30.7805 119.95 30.7805C122.272 30.7805 123.691 32.1029 124.33 33.7881C124.576 34.4376 124.699 35.1456 124.699 35.8536C124.699 36.5616 124.576 37.2697 124.33 37.9192L124.324 37.925ZM106.172 38.0772L106.266 37.609C106.237 37.767 106.208 37.925 106.172 38.0772Z" fill="#04BBEE"/>
<path fill-rule="evenodd" clip-rule="evenodd" d="M57.7849 43.9753C57.8846 43.9929 57.9901 44.0046 58.0957 44.0046H64.8381C65.2954 44.0046 65.7292 43.9636 66.1279 43.8876C66.5501 43.8056 66.937 43.6886 67.3005 43.5306C67.6757 43.3726 68.0217 43.1737 68.3265 42.9455C68.649 42.7114 68.9363 42.4423 69.1825 42.1497C69.3174 41.9917 69.4405 41.8279 69.5577 41.6465C69.675 41.4651 69.7805 41.2837 69.8685 41.1023C69.9623 40.9151 70.0385 40.722 70.1089 40.523C70.1792 40.3241 70.232 40.1251 70.2789 39.9203C70.3199 39.7214 70.3492 39.5166 70.3668 39.3176C70.3844 39.1128 70.3903 38.908 70.3844 38.7091C70.3786 38.5101 70.3551 38.3112 70.3258 38.1123C70.2906 37.9192 70.2496 37.7261 70.1909 37.5388C70.1147 37.2872 70.0151 37.0415 69.8919 36.8133C69.7747 36.585 69.6281 36.3685 69.4698 36.1696C69.3232 35.9882 69.1591 35.8185 68.9773 35.6605C68.8014 35.5084 68.608 35.368 68.3969 35.2451L68.1975 35.1281L68.3617 34.9642C68.4203 34.9057 68.479 34.8413 68.5435 34.7711C68.6021 34.7068 68.6549 34.6365 68.7076 34.5663C68.7721 34.4786 68.8366 34.3908 68.8894 34.303C68.9421 34.2152 68.9949 34.1216 69.0477 34.028C69.1297 33.8642 69.206 33.6945 69.2646 33.5189C69.3232 33.3434 69.3701 33.162 69.4053 32.9806C69.4405 32.7934 69.4581 32.6061 69.4698 32.4189C69.4757 32.2316 69.4698 32.0385 69.4522 31.8454C69.4346 31.6582 69.4053 31.4768 69.3584 31.2896C69.3174 31.1023 69.2587 30.9209 69.1884 30.7454C69.118 30.5698 69.0418 30.3943 68.9539 30.2246C68.8601 30.0549 68.7604 29.8911 68.649 29.7331C68.5435 29.5868 68.4321 29.4464 68.3089 29.3176C68.1917 29.1889 68.0568 29.0602 67.922 28.9432C67.7871 28.8261 67.6406 28.715 67.4881 28.6155C67.3416 28.516 67.1832 28.4224 67.0191 28.3405C66.6849 28.1649 66.2804 28.042 65.8289 27.9484C65.3775 27.8548 64.8732 27.7963 64.3573 27.7612C63.9293 27.7319 63.2023 27.7202 62.4343 27.7202C61.3086 27.7202 60.0774 27.7319 59.4676 27.7436H59.3679C58.9399 27.7553 58.5295 27.767 58.1074 27.767C58.0253 27.767 57.9491 27.767 57.8729 27.7846C57.7967 27.7963 57.7204 27.8138 57.6442 27.8314C57.568 27.8548 57.4977 27.8782 57.4273 27.9133C57.3569 27.9426 57.2924 27.9835 57.228 28.0245C57.1635 28.0654 57.1048 28.1123 57.0462 28.1649C56.9934 28.2117 56.9407 28.2702 56.8879 28.3288C56.841 28.3873 56.7941 28.4458 56.7589 28.516C56.7179 28.5804 56.6886 28.6506 56.6592 28.7208L56.6417 28.7618L56.542 42.4423C56.542 42.5476 56.5537 42.6529 56.5713 42.7524C56.5889 42.8519 56.6182 42.9513 56.6592 43.045C56.7003 43.1386 56.7472 43.2322 56.8 43.3141C56.8586 43.396 56.9231 43.478 56.9934 43.5482C57.0697 43.6184 57.1459 43.6886 57.228 43.7413C57.3159 43.7998 57.4038 43.8466 57.4977 43.8817C57.5915 43.9168 57.6911 43.9519 57.7908 43.9695L57.7849 43.9753ZM60.3412 41.0496L59.6552 41.0379V36.9537H64.8381C65.055 36.9537 65.2602 36.9654 65.4478 36.9946C65.6472 37.0239 65.8289 37.0649 65.9931 37.1175C66.1631 37.176 66.3155 37.2463 66.4562 37.3223C66.6028 37.4101 66.7318 37.5096 66.8373 37.6149C66.896 37.6734 66.9546 37.7378 67.0074 37.808C67.0601 37.8782 67.107 37.9484 67.1422 38.0245C67.1832 38.1006 67.2184 38.1825 67.2477 38.2585C67.2771 38.3405 67.3005 38.4282 67.3181 38.5102C67.3357 38.5921 67.3474 38.674 67.3474 38.7618C67.3474 38.8437 67.3474 38.9314 67.3474 39.0192C67.3474 39.107 67.3298 39.1889 67.3122 39.2767C67.2946 39.3645 67.2712 39.4522 67.2477 39.5341C67.2067 39.6687 67.1481 39.8033 67.0777 39.932C67.0074 40.0608 66.9253 40.1778 66.8373 40.2831C66.7494 40.3884 66.6497 40.4879 66.5383 40.5698C66.4328 40.6518 66.3155 40.722 66.1924 40.7805C65.9989 40.8683 65.7292 40.9326 65.4068 40.9736C65.1019 41.0145 64.7384 41.0438 64.3632 41.0555C64.0466 41.0672 63.4134 41.0731 62.7274 41.0672C61.7893 41.0672 60.7575 41.0555 60.3529 41.0496H60.3412ZM60.4057 34.0046L59.6611 33.987V30.7337H64.4335C64.5801 30.7337 64.7149 30.7395 64.8498 30.7571C64.9846 30.7746 65.1078 30.798 65.225 30.8273C65.3423 30.8566 65.4537 30.8975 65.5533 30.9385C65.6589 30.9853 65.7527 31.0379 65.8348 31.1023C65.8993 31.1491 65.9579 31.2018 66.0107 31.2544C66.0634 31.3071 66.1162 31.3715 66.1572 31.43C66.2041 31.4944 66.2393 31.5646 66.2745 31.6289C66.3097 31.6991 66.339 31.7752 66.3566 31.8513C66.3742 31.9215 66.3918 31.9976 66.4035 32.0678C66.4152 32.138 66.4211 32.2141 66.4211 32.2901C66.4211 32.3662 66.4211 32.4423 66.4093 32.5183C66.4035 32.5944 66.3859 32.6705 66.3683 32.7465C66.3507 32.8343 66.3214 32.9162 66.2921 32.9923C66.2628 33.0742 66.2276 33.1503 66.1865 33.2205C66.1514 33.2907 66.1045 33.3551 66.0576 33.4078C66.0107 33.4663 65.9579 33.5189 65.9051 33.5599C65.5475 33.8349 64.5097 33.9578 63.3841 34.0046C62.2877 34.0514 61.0975 34.028 60.3998 34.0046H60.4057Z" fill="#04BBEE"/>
<path fill-rule="evenodd" clip-rule="evenodd" d="M82.7783 34.5662C82.4441 34.2326 81.9868 34.0278 81.4826 34.0278C80.9783 34.0278 80.5152 34.2326 80.1869 34.5662C79.8527 34.8938 79.6475 35.3561 79.6475 35.8593C79.6475 36.3625 79.8527 36.8248 80.181 37.1525C80.5152 37.486 80.9725 37.6908 81.4767 37.6908C81.9809 37.6908 82.4441 37.486 82.7724 37.1583C83.1066 36.8248 83.3118 36.3684 83.3118 35.8652C83.3118 35.3619 83.1066 34.8997 82.7724 34.572L82.7783 34.5662Z" fill="#04BBEE"/>
<path fill-rule="evenodd" clip-rule="evenodd" d="M84.6075 28.317C83.646 27.9191 82.5906 27.6968 81.4825 27.6968C80.3744 27.6968 79.3191 27.9191 78.3576 28.317C77.3609 28.7325 76.458 29.3352 75.7017 30.09C74.9453 30.8448 74.3415 31.7401 73.9252 32.7407C73.5265 33.7003 73.3037 34.7535 73.3037 35.8594C73.3037 36.9654 73.5265 38.0186 73.9252 38.9782C74.3415 39.973 74.9453 40.8741 75.7017 41.6289C76.458 42.3837 77.355 42.9864 78.3576 43.4019C79.3191 43.7998 80.3744 44.0221 81.4825 44.0221C82.5906 44.0221 83.646 43.7998 84.6075 43.4019C85.6042 42.9864 86.5071 42.3837 87.2634 41.6289C88.0197 40.8741 88.6236 39.9788 89.0399 38.9782C89.4386 38.0186 89.6613 36.9654 89.6613 35.8594C89.6613 34.7535 89.4386 33.7003 89.0399 32.7407C88.6236 31.7459 88.0197 30.8448 87.2634 30.09C86.5071 29.3352 85.61 28.7325 84.6075 28.317ZM81.4825 30.9911C82.831 30.9911 84.0505 31.5353 84.9299 32.4188C85.3814 32.8694 85.739 33.4019 85.9911 33.9987C86.2315 34.5721 86.3605 35.2041 86.3605 35.8594C86.3605 37.2053 85.8153 38.4223 84.9299 39.3001C84.4785 39.7506 83.945 40.1075 83.347 40.3592C82.7724 40.5991 82.1392 40.7278 81.4825 40.7278C80.134 40.7278 78.9146 40.1836 78.0351 39.3001C77.5837 38.8495 77.226 38.317 76.9739 37.7202C76.7335 37.1467 76.6046 36.5148 76.6046 35.8594C76.6046 34.5136 77.1498 33.2965 78.0351 32.4188C78.4866 31.9683 79.0201 31.6113 79.6181 31.3597C80.1927 31.1198 80.8259 30.9911 81.4825 30.9911Z" fill="#04BBEE"/>
</g>
<defs>
<clipPath id="clip0_211_4277">
<rect width="128" height="50" fill="white" transform="translate(0 0.347656)"/>
</clipPath>
</defs>
</svg>
