<svg width="30" height="30" viewBox="0 0 30 30" fill="none" xmlns="http://www.w3.org/2000/svg">
<path d="M9.35156 23.4727H19.707V16.8828H0.878906V21.5898C0.878906 22.0892 1.07707 22.5684 1.43057 22.9214C1.78359 23.2745 2.2623 23.4726 2.7617 23.4726C3.28043 23.4726 3.70313 23.4726 3.70313 23.4726" stroke="white" stroke-width="1.5" stroke-miterlimit="10" stroke-linecap="round" stroke-linejoin="round"/>
<path d="M19.707 16.8828V5.58592C19.707 5.08699 19.5088 4.60781 19.1554 4.25478C18.8023 3.90176 18.3236 3.70312 17.8242 3.70312C14.2168 3.70312 6.3692 3.70312 2.7617 3.70312C2.2623 3.70312 1.78359 3.90176 1.43057 4.25478C1.07707 4.60781 0.878906 5.08699 0.878906 5.58592C0.878906 9.22822 0.878906 16.8828 0.878906 16.8828H19.707Z" stroke="white" stroke-width="1.5" stroke-miterlimit="10" stroke-linecap="round" stroke-linejoin="round"/>
<path d="M9.99202 7.00003C9.99202 7.00003 7.94985 9.29198 8.00094 11.2971C8.06557 13.8365 11.9185 13.8365 11.9831 11.2971C12.0342 9.29198 9.99202 7.00003 9.99202 7.00003Z" stroke="#18DECA" stroke-width="1.5" stroke-miterlimit="10" stroke-linecap="round" stroke-linejoin="round"/>
<path d="M25.3555 23.4727H27.2383C27.7377 23.4727 28.2164 23.2745 28.5694 22.9215C28.9229 22.5684 29.1211 22.0893 29.1211 21.5899C29.1211 19.675 29.1211 16.6315 29.1211 14.0586C29.1211 11.4594 27.0137 9.35162 24.414 9.35162H19.707V23.4727" stroke="white" stroke-width="1.5" stroke-miterlimit="10" stroke-linecap="round" stroke-linejoin="round"/>
<path d="M6.52734 26.2969C8.08712 26.2969 9.35156 25.0324 9.35156 23.4727C9.35156 21.9129 8.08712 20.6484 6.52734 20.6484C4.96757 20.6484 3.70312 21.9129 3.70312 23.4727C3.70312 25.0324 4.96757 26.2969 6.52734 26.2969Z" stroke="white" stroke-width="1.5" stroke-miterlimit="10" stroke-linecap="round" stroke-linejoin="round"/>
<path d="M22.5312 26.2969C24.091 26.2969 25.3555 25.0324 25.3555 23.4727C25.3555 21.9129 24.091 20.6484 22.5312 20.6484C20.9715 20.6484 19.707 21.9129 19.707 23.4727C19.707 25.0324 20.9715 26.2969 22.5312 26.2969Z" stroke="white" stroke-width="1.5" stroke-miterlimit="10" stroke-linecap="round" stroke-linejoin="round"/>
<path d="M24.4141 9.35156V16.8828H29.1211" stroke="white" stroke-width="1.5" stroke-miterlimit="10" stroke-linecap="round" stroke-linejoin="round"/>
</svg>
