<svg width="34" height="35" viewBox="0 0 34 35" fill="none" xmlns="http://www.w3.org/2000/svg">
<g clip-path="url(#clip0_211_667)">
<path d="M19.5358 19.8398C19.5358 18.4394 18.4004 17.3041 16.9999 17.3041C15.5993 17.3041 14.4639 18.4393 14.4639 19.8398C14.4639 21.71 16.9999 23.7941 16.9999 23.7941C16.9999 23.7941 19.5358 21.6954 19.5358 19.8398Z" stroke="#0B54A0" stroke-width="1.5" stroke-miterlimit="10" stroke-linecap="round" stroke-linejoin="round"/>
<path d="M7.93896 12.7185L13.9597 7.33927H20.0401L26.0608 12.7185H7.93896Z" stroke="#0B54A0" stroke-width="1.5" stroke-miterlimit="10" stroke-linecap="round" stroke-linejoin="round"/>
<path d="M17.0012 2.27735H16.9989C15.4092 2.27735 14.1206 3.56596 14.1206 5.15559V7.33923H19.8794V5.15559C19.8795 3.56596 18.5908 2.27735 17.0012 2.27735Z" stroke="#0B54A0" stroke-width="1.5" stroke-miterlimit="10" stroke-linecap="round" stroke-linejoin="round"/>
<path d="M8 12.9993H26" stroke="#0B54A0" stroke-width="1.5" stroke-miterlimit="10" stroke-linecap="round" stroke-linejoin="round"/>
<path d="M8 27.9993H26" stroke="#0B54A0" stroke-width="1.5" stroke-miterlimit="10" stroke-linecap="round" stroke-linejoin="round"/>
<path d="M26.0608 12.9492V29.9347C26.0608 31.9706 24.4091 33.6211 22.3716 33.6211H11.6282C9.59069 33.6211 7.93896 31.9706 7.93896 29.9347V12.7184H21.9554" stroke="#0B54A0" stroke-width="1.5" stroke-miterlimit="10" stroke-linecap="round" stroke-linejoin="round"/>
</g>
<defs>
<clipPath id="clip0_211_667">
<rect width="34" height="34" fill="white" transform="translate(0 0.949219)"/>
</clipPath>
</defs>
</svg>
