<svg width="17" height="17" viewBox="0 0 17 17" fill="none" xmlns="http://www.w3.org/2000/svg">
<g clip-path="url(#clip0_211_1348)">
<path d="M9.7215 11.3932C9.85918 11.4564 10.0143 11.4708 10.1613 11.4341C10.3083 11.3974 10.4384 11.3117 10.5302 11.1912L10.7668 10.8812C10.891 10.7156 11.0521 10.5812 11.2372 10.4886C11.4224 10.396 11.6265 10.3478 11.8335 10.3478H13.8335C14.1871 10.3478 14.5263 10.4883 14.7763 10.7383C15.0264 10.9884 15.1668 11.3275 15.1668 11.6812V13.6812C15.1668 14.0348 15.0264 14.3739 14.7763 14.624C14.5263 14.874 14.1871 15.0145 13.8335 15.0145C10.6509 15.0145 7.59865 13.7502 5.34821 11.4998C3.09778 9.24933 1.8335 6.19708 1.8335 3.01449C1.8335 2.66086 1.97397 2.32173 2.22402 2.07168C2.47407 1.82163 2.81321 1.68115 3.16683 1.68115H5.16683C5.52045 1.68115 5.85959 1.82163 6.10964 2.07168C6.35969 2.32173 6.50016 2.66086 6.50016 3.01449V5.01449C6.50016 5.22148 6.45197 5.42563 6.3594 5.61077C6.26683 5.79591 6.13242 5.95696 5.96683 6.08115L5.65483 6.31515C5.53244 6.4086 5.44618 6.54154 5.41069 6.69139C5.3752 6.84123 5.39268 6.99874 5.46016 7.13715C6.37128 8.98773 7.86978 10.4844 9.7215 11.3932Z" stroke="#0155AE" stroke-width="1.6" stroke-linecap="round" stroke-linejoin="round"/>
</g>
<defs>
<clipPath id="clip0_211_1348">
<rect width="16" height="16" fill="white" transform="translate(0.5 0.347656)"/>
</clipPath>
</defs>
</svg>
