<svg width="34" height="35" viewBox="0 0 34 35" fill="none" xmlns="http://www.w3.org/2000/svg">
<path d="M10.5984 27.5516H22.3346V20.0831H0.996094V25.4177C0.996094 25.9837 1.22068 26.5268 1.62131 26.9269C2.02141 27.327 2.56395 27.5516 3.12993 27.5516C3.71782 27.5516 4.19688 27.5516 4.19688 27.5516" stroke="#0B54A0" stroke-width="1.5" stroke-miterlimit="10" stroke-linecap="round" stroke-linejoin="round"/>
<path d="M22.3346 20.0831V7.27995C22.3346 6.7145 22.11 6.17143 21.7094 5.77133C21.3093 5.37124 20.7668 5.14612 20.2008 5.14612C16.1123 5.14612 7.21843 5.14612 3.12993 5.14612C2.56395 5.14612 2.02141 5.37124 1.62131 5.77133C1.22068 6.17143 0.996094 6.7145 0.996094 7.27995C0.996094 11.4079 0.996094 20.0831 0.996094 20.0831H22.3346Z" stroke="#0B54A0" stroke-width="1.5" stroke-miterlimit="10" stroke-linecap="round" stroke-linejoin="round"/>
<path d="M11.3245 8.88261C11.3245 8.88261 9.01006 11.4802 9.06796 13.7526C9.14121 16.6306 13.5078 16.6306 13.5811 13.7526C13.639 11.4802 11.3245 8.88261 11.3245 8.88261Z" stroke="#0B54A0" stroke-width="1.5" stroke-miterlimit="10" stroke-linecap="round" stroke-linejoin="round"/>
<path d="M28.736 27.5516H30.8699C31.4358 27.5516 31.9784 27.327 32.3785 26.9269C32.7791 26.5268 33.0037 25.9837 33.0037 25.4177C33.0037 23.2476 33.0037 19.7982 33.0037 16.8823C33.0037 13.9366 30.6154 11.5477 27.6691 11.5477H22.3345V27.5516" stroke="#0B54A0" stroke-width="1.5" stroke-miterlimit="10" stroke-linecap="round" stroke-linejoin="round"/>
<path d="M7.39756 30.7524C9.1653 30.7524 10.5983 29.3194 10.5983 27.5516C10.5983 25.7839 9.1653 24.3508 7.39756 24.3508C5.62982 24.3508 4.19678 25.7839 4.19678 27.5516C4.19678 29.3194 5.62982 30.7524 7.39756 30.7524Z" stroke="#0B54A0" stroke-width="1.5" stroke-miterlimit="10" stroke-linecap="round" stroke-linejoin="round"/>
<path d="M25.5353 30.7524C27.303 30.7524 28.736 29.3194 28.736 27.5516C28.736 25.7839 27.303 24.3508 25.5353 24.3508C23.7675 24.3508 22.3345 25.7839 22.3345 27.5516C22.3345 29.3194 23.7675 30.7524 25.5353 30.7524Z" stroke="#0B54A0" stroke-width="1.5" stroke-miterlimit="10" stroke-linecap="round" stroke-linejoin="round"/>
<path d="M27.6694 11.5477V20.0831H33.004" stroke="#0B54A0" stroke-width="1.5" stroke-miterlimit="10" stroke-linecap="round" stroke-linejoin="round"/>
</svg>
