<svg width="25" height="26" viewBox="0 0 25 26" fill="none" xmlns="http://www.w3.org/2000/svg">
<g filter="url(#filter0_ii_211_1068)">
<rect y="0.295898" width="25" height="25" rx="6" fill="url(#paint0_linear_211_1068)"/>
</g>
<path d="M10.3711 17.5366C10.4861 17.6516 10.6203 17.7091 10.7737 17.7091C10.9271 17.7091 11.0804 17.6516 11.1763 17.5366L19.4392 9.27365C19.6693 9.04359 19.6693 8.67933 19.4392 8.46844C19.2092 8.23838 18.8449 8.23838 18.634 8.46844L10.7737 16.3288L6.97775 12.5136C6.74769 12.2836 6.38343 12.2836 6.17254 12.5136C5.94249 12.7437 5.94249 13.1079 6.17254 13.3188L10.3711 17.5366Z" fill="#0E655B"/>
<defs>
<filter id="filter0_ii_211_1068" x="-1.3258" y="-1.02991" width="28.9774" height="28.9774" filterUnits="userSpaceOnUse" color-interpolation-filters="sRGB">
<feFlood flood-opacity="0" result="BackgroundImageFix"/>
<feBlend mode="normal" in="SourceGraphic" in2="BackgroundImageFix" result="shape"/>
<feColorMatrix in="SourceAlpha" type="matrix" values="0 0 0 0 0 0 0 0 0 0 0 0 0 0 0 0 0 0 127 0" result="hardAlpha"/>
<feOffset dx="2.65161" dy="2.65161"/>
<feGaussianBlur stdDeviation="4.41935"/>
<feComposite in2="hardAlpha" operator="arithmetic" k2="-1" k3="1"/>
<feColorMatrix type="matrix" values="0 0 0 0 1 0 0 0 0 1 0 0 0 0 1 0 0 0 0.45 0"/>
<feBlend mode="normal" in2="shape" result="effect1_innerShadow_211_1068"/>
<feColorMatrix in="SourceAlpha" type="matrix" values="0 0 0 0 0 0 0 0 0 0 0 0 0 0 0 0 0 0 127 0" result="hardAlpha"/>
<feOffset dx="-1.3258" dy="-1.3258"/>
<feGaussianBlur stdDeviation="3.53548"/>
<feComposite in2="hardAlpha" operator="arithmetic" k2="-1" k3="1"/>
<feColorMatrix type="matrix" values="0 0 0 0 1 0 0 0 0 1 0 0 0 0 1 0 0 0 0.3 0"/>
<feBlend mode="normal" in2="effect1_innerShadow_211_1068" result="effect2_innerShadow_211_1068"/>
</filter>
<linearGradient id="paint0_linear_211_1068" x1="3.28947" y1="-1.2666" x2="25.4556" y2="24.9101" gradientUnits="userSpaceOnUse">
<stop stop-color="#BAFFF7"/>
<stop offset="1" stop-color="#18DECA"/>
</linearGradient>
</defs>
</svg>
