<svg width="17" height="16" viewBox="0 0 17 16" fill="none" xmlns="http://www.w3.org/2000/svg">
<path d="M9.7215 11.0453C9.85918 11.1086 10.0143 11.123 10.1613 11.0863C10.3083 11.0496 10.4384 10.9639 10.5302 10.8433L10.7668 10.5333C10.891 10.3677 11.0521 10.2333 11.2372 10.1408C11.4224 10.0482 11.6265 10 11.8335 10H13.8335C14.1871 10 14.5263 10.1405 14.7763 10.3905C15.0264 10.6406 15.1668 10.9797 15.1668 11.3333V13.3333C15.1668 13.687 15.0264 14.0261 14.7763 14.2761C14.5263 14.5262 14.1871 14.6667 13.8335 14.6667C10.6509 14.6667 7.59865 13.4024 5.34821 11.152C3.09778 8.90151 1.8335 5.84927 1.8335 2.66667C1.8335 2.31305 1.97397 1.97391 2.22402 1.72386C2.47407 1.47381 2.81321 1.33334 3.16683 1.33334H5.16683C5.52045 1.33334 5.85959 1.47381 6.10964 1.72386C6.35969 1.97391 6.50016 2.31305 6.50016 2.66667V4.66667C6.50016 4.87366 6.45197 5.07781 6.3594 5.26295C6.26683 5.44809 6.13242 5.60914 5.96683 5.73334L5.65483 5.96734C5.53244 6.06079 5.44618 6.19373 5.41069 6.34357C5.3752 6.49341 5.39268 6.65092 5.46016 6.78934C6.37128 8.63991 7.86978 10.1365 9.7215 11.0453Z" stroke="white" stroke-width="1.6" stroke-linecap="round" stroke-linejoin="round"/>
</svg>
