<svg width="38" height="38" viewBox="0 0 38 38" fill="none" xmlns="http://www.w3.org/2000/svg">
<g clip-path="url(#clip0_211_964)">
<path d="M19.0001 14.5559L21.803 18.1792L25.1426 17.2636L23.4432 23.1982H14.5387L12.8574 17.2636L16.1971 18.1792L19.0001 14.5559Z" stroke="#18DECA" stroke-width="2" stroke-miterlimit="22.926" stroke-linecap="round" stroke-linejoin="round"/>
<mask id="mask0_211_964" style="mask-type:luminance" maskUnits="userSpaceOnUse" x="0" y="0" width="38" height="38">
<path d="M0.5 0.398441H37.5V37.3984H0.5V0.398441Z" fill="white"/>
</mask>
<g mask="url(#mask0_211_964)">
<path d="M19 1.48332C21.3967 1.54974 22.8228 4.47483 25.038 5.39239C27.0053 6.20733 29.8508 5.0372 31.3142 6.58405C32.962 8.32579 31.9021 11.4026 32.8196 13.6177C33.6346 15.5851 36.4741 16.7698 36.415 18.8984C36.3486 21.2951 33.4235 22.7213 32.5061 24.9364C31.691 26.9038 32.8612 29.7493 31.3142 31.2127C29.5726 32.8605 26.4958 31.8006 24.2806 32.7181C22.3133 33.5331 21.1286 36.3725 19 36.3135C16.6033 36.2471 15.1771 33.322 12.962 32.4045C10.9947 31.5895 8.14914 32.7597 6.68569 31.2127C5.03789 29.4711 6.09781 26.3942 5.18032 24.1791C4.36531 22.2118 1.52585 21.0271 1.58489 18.8984C1.6513 16.5017 4.5764 15.0755 5.49388 12.8605C6.3089 10.893 5.1387 8.0475 6.68569 6.58405C8.42729 4.93632 11.5041 5.99624 13.7193 5.07868C15.6866 4.26381 16.8713 1.42436 19 1.48332Z" stroke="white" stroke-width="2" stroke-miterlimit="22.926" stroke-linecap="round" stroke-linejoin="round"/>
<path d="M19 29.4492C24.8112 29.4492 29.5508 24.7096 29.5508 18.8984C29.5508 13.0873 24.8112 8.34766 19 8.34766C13.1888 8.34766 8.44922 13.0873 8.44922 18.8984C8.44922 24.7096 13.1888 29.4492 19 29.4492Z" stroke="white" stroke-width="2" stroke-miterlimit="22.926" stroke-linecap="round" stroke-linejoin="round"/>
</g>
</g>
<defs>
<clipPath id="clip0_211_964">
<rect width="37" height="37" fill="white" transform="translate(0.5 0.398438)"/>
</clipPath>
</defs>
</svg>
