<svg width="128" height="50" viewBox="0 0 128 50" fill="none" xmlns="http://www.w3.org/2000/svg">
<g clip-path="url(#clip0_211_452)">
<path fill-rule="evenodd" clip-rule="evenodd" d="M32.8208 1.79637C30.0242 0.643651 26.9579 0 23.7391 0C20.5203 0 17.454 0.6378 14.6574 1.79637C11.7552 2.9959 9.14035 4.75717 6.94761 6.94558C4.76073 9.12815 2.99598 11.7379 1.78821 14.6401C0.633206 17.4312 -0.0117188 20.4915 -0.0117188 23.7039C-0.0117188 26.9163 0.627343 29.9766 1.78821 32.7677C2.99011 35.6641 4.75486 38.2738 6.94761 40.4623C9.13449 42.6448 11.7494 44.4061 14.6574 45.6115C17.454 46.7642 20.5203 47.4078 23.7391 47.4078C26.9579 47.4078 30.0242 46.77 32.8208 45.6115C35.723 44.4119 38.3379 42.6507 40.5306 40.4623C42.7175 38.2738 44.4822 35.67 45.69 32.7677C46.845 29.9766 47.4899 26.9163 47.4899 23.7039C47.4899 20.4915 46.8509 17.4312 45.69 14.6401C44.4881 11.7437 42.7233 9.134 40.5306 6.94558C38.3379 4.75717 35.7288 3.00176 32.8208 1.79637ZM31.4899 5.00878C33.97 6.03277 36.2037 7.53657 38.0682 9.39731C39.9326 11.258 41.4394 13.4874 42.4654 15.9626C43.4562 18.3441 44.0015 20.9596 44.0015 23.6922C44.0015 26.4248 43.4562 29.0404 42.4654 31.4219C41.4394 33.897 39.9326 36.1264 38.0682 37.9871C36.2037 39.8479 33.97 41.3517 31.4899 42.3757C29.1037 43.3645 26.483 43.9087 23.745 43.9087C21.007 43.9087 18.3862 43.3645 16 42.3757C13.52 41.3517 11.2862 39.8479 9.42177 37.9871C7.55735 36.1264 6.05057 33.897 5.02456 31.4219C4.03372 29.0404 3.48846 26.4248 3.48846 23.6922C3.48846 20.9596 4.03372 18.3441 5.02456 15.9626C6.05057 13.4874 7.55735 11.258 9.42177 9.39731C11.2862 7.53657 13.52 6.03277 16 5.00878C18.3862 4.0199 21.007 3.47572 23.745 3.47572C26.483 3.47572 29.1037 4.0199 31.4899 5.00878Z" fill="#BACEE2"/>
<path fill-rule="evenodd" clip-rule="evenodd" d="M29.3326 10.2165C27.6148 9.50264 25.7269 9.1106 23.7452 9.1106C21.7636 9.1106 19.8757 9.50264 18.1579 10.2165C16.3696 10.9538 14.7632 12.0363 13.4147 13.3821C12.0662 14.7279 10.9816 16.3312 10.2429 18.1159C9.53345 19.8303 9.13477 21.7145 9.13477 23.6922C9.13477 25.67 9.52758 27.5541 10.2429 29.2686C10.9816 31.0533 12.0662 32.6565 13.4147 34.0023C14.7632 35.3482 16.3696 36.4307 18.1579 37.1679C19.8757 37.8818 21.7636 38.2739 23.7452 38.2739C25.7269 38.2739 27.6148 37.8818 29.3326 37.1679C31.1208 36.4307 32.7273 35.3482 34.0758 34.0023C35.4242 32.6565 36.5089 31.0533 37.2476 29.2686C37.9629 27.5541 38.3557 25.67 38.3557 23.6922C38.3557 21.7145 37.9629 19.8303 37.2476 18.1159C36.5089 16.3312 35.4242 14.7279 34.0758 13.3821C32.7273 12.0363 31.1208 10.9538 29.3326 10.2165ZM27.9666 13.4991C29.3209 14.0609 30.5404 14.8801 31.5547 15.8923C32.569 16.9046 33.3957 18.1217 33.9526 19.4734C34.492 20.7724 34.791 22.2001 34.791 23.6922C34.791 25.1843 34.492 26.6121 33.9526 27.9111C33.3898 29.2627 32.569 30.4798 31.5547 31.4921C30.5404 32.5044 29.3209 33.3294 27.9666 33.8853C26.665 34.4236 25.2344 34.7221 23.7394 34.7221C22.2443 34.7221 20.8138 34.4236 19.5122 33.8853C18.1578 33.3236 16.9384 32.5044 15.9241 31.4921C14.9039 30.474 14.0831 29.2627 13.5261 27.9111C12.9867 26.6121 12.6877 25.1843 12.6877 23.6922C12.6877 22.2001 12.9867 20.7724 13.5261 19.4734C14.089 18.1217 14.9098 16.9046 15.9241 15.8923C16.9442 14.8742 18.1578 14.055 19.5122 13.4991C20.8138 12.9608 22.2443 12.6624 23.7394 12.6624C25.2344 12.6624 26.665 12.9608 27.9666 13.4991Z" fill="#BACEE2"/>
<path fill-rule="evenodd" clip-rule="evenodd" d="M25.9081 18.4728C25.2397 18.1978 24.5127 18.0457 23.7447 18.0457C22.9766 18.0457 22.2437 18.1978 21.5812 18.4728C20.8894 18.7595 20.2679 19.1808 19.7461 19.7016C19.2243 20.2224 18.8022 20.8426 18.5149 21.5331C18.2394 22.2001 18.0869 22.9257 18.0869 23.6922C18.0869 24.4588 18.2394 25.1843 18.5149 25.8455C18.8022 26.536 19.2243 27.1562 19.7461 27.677L19.7989 27.7297C20.309 28.2329 20.9129 28.6366 21.5812 28.9117C22.2496 29.1867 22.9766 29.3388 23.7447 29.3388C24.5127 29.3388 25.2456 29.1867 25.9081 28.9117C26.5765 28.6366 27.1804 28.2329 27.6904 27.7355L27.7432 27.677C28.265 27.1562 28.6871 26.536 28.9744 25.8455C29.25 25.1843 29.4024 24.4529 29.4024 23.6922C29.4024 22.9316 29.25 22.1943 28.9744 21.5331C28.6871 20.8426 28.265 20.2224 27.7432 19.7016C27.2214 19.1808 26.5999 18.7595 25.9081 18.4728ZM24.5713 21.6852C24.841 21.7964 25.0814 21.9602 25.2808 22.1592C25.4801 22.3581 25.6443 22.598 25.7498 22.8672C25.8553 23.1246 25.914 23.4055 25.914 23.6981C25.914 23.9907 25.8553 24.2715 25.7498 24.529C25.6384 24.7981 25.4801 25.038 25.2808 25.237L25.1518 25.3657L25.14 25.354C24.97 25.4945 24.7765 25.6173 24.5655 25.6993C24.3075 25.8046 24.0261 25.8631 23.7329 25.8631C23.4398 25.8631 23.1584 25.8046 22.9004 25.6993C22.6893 25.6115 22.4959 25.4945 22.3258 25.354L22.3141 25.3657L22.1851 25.237C21.9858 25.038 21.8275 24.7981 21.7161 24.529C21.6105 24.2715 21.5519 23.9907 21.5519 23.6981C21.5519 23.4055 21.6105 23.1246 21.7161 22.8672C21.8275 22.598 21.9916 22.3581 22.191 22.1592C22.3903 21.9602 22.6307 21.7964 22.9004 21.6911C23.1584 21.5857 23.4398 21.5272 23.7329 21.5272C24.0261 21.5272 24.3075 21.5857 24.5655 21.6911L24.5713 21.6852Z" fill="#04BBEE"/>
<path fill-rule="evenodd" clip-rule="evenodd" d="M73.8666 16.0854C74.8809 18.7419 77.2026 20.8075 80.7731 20.8075C81.7347 20.8075 82.6258 20.6495 83.4466 20.3394C84.2733 20.0234 85.0296 19.5553 85.7097 18.9292L86.0088 18.66V19.0638C86.0322 19.8595 86.4719 20.3686 87.0348 20.591C87.2576 20.6787 87.5038 20.7255 87.75 20.7255C87.9963 20.7255 88.2367 20.6787 88.4595 20.5851C89.0047 20.3569 89.4327 19.8361 89.4327 19.0286V12.4107C89.3624 10.1814 88.4653 8.19775 87.0113 6.78172C85.5749 5.38324 83.5991 4.53479 81.3418 4.53479C77.4371 4.53479 74.9688 6.68225 73.8959 9.42069C73.4796 10.4798 73.2744 11.6267 73.2686 12.7677C73.2686 13.9087 73.4679 15.0497 73.8666 16.103V16.0854ZM85.7449 14.7279C85.1059 16.4189 83.646 17.7355 81.3712 17.7355C79.0963 17.7355 77.5661 16.4131 76.9153 14.722C76.6632 14.0725 76.5401 13.3645 76.5401 12.6565C76.5401 11.9485 76.6632 11.2405 76.9153 10.591C77.5661 8.90577 79.0494 7.58336 81.3712 7.58336C83.6929 7.58336 85.1117 8.90577 85.7449 10.591C85.9912 11.2405 86.1143 11.9485 86.1143 12.6565C86.1143 13.3645 85.9912 14.0725 85.7449 14.722V14.7279Z" fill="white"/>
<path fill-rule="evenodd" clip-rule="evenodd" d="M93.7308 20.3218C94.0298 20.6202 94.4578 20.8075 94.9503 20.8075C95.4428 20.8075 95.8766 20.6261 96.1756 20.3335C96.4805 20.0292 96.6564 19.6021 96.6564 19.1047V10.8601L100.608 16.5242C100.96 17.0275 101.411 17.4078 101.904 17.5541C102.332 17.6828 102.795 17.6302 103.258 17.3376C103.915 16.9221 105.92 13.9906 107.104 12.2761C107.374 11.8841 107.597 11.5564 107.778 11.3048L108.113 10.8367V19.1106C108.113 19.9239 108.558 20.4447 109.127 20.6729C109.35 20.7606 109.59 20.8075 109.83 20.8075C110.071 20.8075 110.311 20.7606 110.534 20.6729C111.091 20.4505 111.525 19.9297 111.525 19.1047V6.45403C111.525 6.09709 111.443 5.79282 111.302 5.54706C111.15 5.28375 110.933 5.08481 110.681 4.95022C110.423 4.81564 110.129 4.74543 109.83 4.74543C109.496 4.74543 109.156 4.8332 108.851 5.00289C108.107 5.42419 105.023 10.0292 103.387 12.4575C103.012 13.0134 102.713 13.4581 102.537 13.7156L102.384 13.9321L96.6974 5.72846C96.3984 5.30131 96.0291 5.02044 95.6421 4.87416C95.3372 4.75713 95.0265 4.72202 94.7333 4.75128C94.4402 4.78639 94.1646 4.88586 93.9301 5.0497C93.6897 5.21939 93.4963 5.44759 93.379 5.73431L93.2441 19.093C93.2441 19.5787 93.4259 20.0058 93.7308 20.3159V20.3218Z" fill="white"/>
<path fill-rule="evenodd" clip-rule="evenodd" d="M57.7849 20.7782C57.8846 20.7957 57.9901 20.8074 58.0957 20.8074H64.8381C65.2954 20.8074 65.7292 20.7665 66.1279 20.6904C66.5501 20.6085 66.937 20.4915 67.3005 20.3335C67.6757 20.1755 68.0217 19.9766 68.3265 19.7483C68.649 19.5143 68.9363 19.2451 69.1825 18.9526C69.3174 18.7946 69.4405 18.6307 69.5577 18.4493C69.675 18.268 69.7805 18.0866 69.8685 17.9052C69.9623 17.7179 70.0385 17.5248 70.1089 17.3259C70.1792 17.1269 70.232 16.928 70.2789 16.7232C70.3199 16.5242 70.3492 16.3194 70.3668 16.1205C70.3844 15.9157 70.3903 15.7109 70.3844 15.512C70.3786 15.313 70.3551 15.1141 70.3258 14.9151C70.2906 14.722 70.2496 14.5289 70.1909 14.3417C70.1147 14.0901 70.0151 13.8443 69.8919 13.6161C69.7747 13.3879 69.6281 13.1714 69.4698 12.9725C69.3232 12.7911 69.1591 12.6214 68.9773 12.4634C68.8014 12.3113 68.608 12.1708 68.3969 12.0479L68.1975 11.9309L68.3617 11.7671C68.4203 11.7086 68.479 11.6442 68.5435 11.574C68.6021 11.5096 68.6549 11.4394 68.7076 11.3692C68.7721 11.2814 68.8366 11.1936 68.8894 11.1059C68.9421 11.0181 68.9949 10.9245 69.0477 10.8309C69.1297 10.667 69.206 10.4973 69.2646 10.3218C69.3232 10.1462 69.3701 9.96485 69.4053 9.78346C69.4405 9.59621 69.4581 9.40897 69.4698 9.22173C69.4757 9.03448 69.4698 8.84139 69.4522 8.64829C69.4346 8.46105 69.4053 8.27965 69.3584 8.09241C69.3174 7.90517 69.2587 7.72377 69.1884 7.54823C69.118 7.37269 69.0418 7.19715 68.9539 7.02746C68.8601 6.85777 68.7604 6.69393 68.649 6.53594C68.5435 6.38966 68.4321 6.24923 68.3089 6.1205C68.1917 5.99177 68.0568 5.86304 67.922 5.74601C67.7871 5.62898 67.6406 5.51781 67.4881 5.41833C67.3416 5.31886 67.1832 5.22524 67.0191 5.14332C66.6849 4.96778 66.2804 4.8449 65.8289 4.75127C65.3775 4.65765 64.8732 4.59914 64.3573 4.56403C63.9293 4.53477 63.2023 4.52307 62.4343 4.52307C61.3086 4.52307 60.0774 4.53477 59.4676 4.54648H59.3679C58.9399 4.55818 58.5295 4.56988 58.1074 4.56988C58.0253 4.56988 57.9491 4.56988 57.8729 4.58744C57.7967 4.59914 57.7204 4.61669 57.6442 4.63425C57.568 4.65765 57.4977 4.68106 57.4273 4.71617C57.3569 4.74542 57.2924 4.78638 57.228 4.82734C57.1635 4.8683 57.1048 4.91511 57.0462 4.96778C56.9934 5.01459 56.9407 5.0731 56.8879 5.13161C56.841 5.19013 56.7941 5.24864 56.7589 5.31886C56.7179 5.38322 56.6886 5.45344 56.6592 5.52366L56.6417 5.56462L56.542 19.2451C56.542 19.3505 56.5537 19.4558 56.5713 19.5553C56.5889 19.6547 56.6182 19.7542 56.6592 19.8478C56.7003 19.9414 56.7472 20.0351 56.8 20.117C56.8586 20.1989 56.9231 20.2808 56.9934 20.351C57.0697 20.4213 57.1459 20.4915 57.228 20.5441C57.3159 20.6026 57.4038 20.6495 57.4977 20.6846C57.5915 20.7197 57.6911 20.7548 57.7908 20.7723L57.7849 20.7782ZM60.3412 17.8525L59.6552 17.8408V13.7565H64.8381C65.055 13.7565 65.2602 13.7682 65.4478 13.7975C65.6472 13.8268 65.8289 13.8677 65.9931 13.9204C66.1631 13.9789 66.3155 14.0491 66.4562 14.1252C66.6028 14.2129 66.7318 14.3124 66.8373 14.4177C66.896 14.4763 66.9546 14.5406 67.0074 14.6108C67.0601 14.6811 67.107 14.7513 67.1422 14.8273C67.1832 14.9034 67.2184 14.9853 67.2477 15.0614C67.2771 15.1433 67.3005 15.2311 67.3181 15.313C67.3357 15.3949 67.3474 15.4768 67.3474 15.5646C67.3474 15.6465 67.3474 15.7343 67.3474 15.8221C67.3474 15.9098 67.3298 15.9918 67.3122 16.0795C67.2946 16.1673 67.2712 16.2551 67.2477 16.337C67.2067 16.4716 67.1481 16.6062 67.0777 16.7349C67.0074 16.8636 66.9253 16.9806 66.8373 17.086C66.7494 17.1913 66.6497 17.2908 66.5383 17.3727C66.4328 17.4546 66.3155 17.5248 66.1924 17.5833C65.9989 17.6711 65.7292 17.7355 65.4068 17.7764C65.1019 17.8174 64.7384 17.8467 64.3632 17.8584C64.0466 17.8701 63.4134 17.8759 62.7274 17.8701C61.7893 17.8701 60.7575 17.8584 60.3529 17.8525H60.3412ZM60.4057 10.8074L59.6611 10.7899V7.53653H64.4335C64.5801 7.53653 64.7149 7.54238 64.8498 7.55993C64.9846 7.57749 65.1078 7.60089 65.225 7.63015C65.3423 7.65941 65.4537 7.70037 65.5533 7.74133C65.6589 7.78814 65.7527 7.8408 65.8348 7.90517C65.8993 7.95198 65.9579 8.00464 66.0107 8.0573C66.0634 8.10996 66.1162 8.17433 66.1572 8.23284C66.2041 8.29721 66.2393 8.36157 66.2745 8.43179C66.3097 8.50201 66.339 8.57807 66.3566 8.65414C66.3742 8.72436 66.3918 8.80043 66.4035 8.87064C66.4152 8.94086 66.4211 9.01693 66.4211 9.093C66.4211 9.16906 66.4211 9.24513 66.4093 9.3212C66.4035 9.39727 66.3859 9.47333 66.3683 9.5494C66.3507 9.63717 66.3214 9.71909 66.2921 9.79516C66.2628 9.87708 66.2276 9.95315 66.1865 10.0234C66.1514 10.0936 66.1045 10.1579 66.0576 10.2106C66.0107 10.2691 65.9579 10.3218 65.9051 10.3627C65.5475 10.6378 64.5097 10.7606 63.3841 10.8074C62.2877 10.8543 61.0975 10.8309 60.3998 10.8074H60.4057Z" fill="white"/>
<path fill-rule="evenodd" clip-rule="evenodd" d="M93.1801 38.9057C94.2061 41.5798 96.5454 43.6571 100.122 43.6571C101.124 43.6571 102.062 43.4581 102.913 43.0661C103.757 42.674 104.513 42.0947 105.152 41.3399L105.475 40.9596V41.4569C105.475 43.0251 105.076 44.2246 104.443 45.0906C103.827 45.9391 102.983 46.4716 102.057 46.7349C101.142 46.9982 100.145 46.9982 99.213 46.77C98.0522 46.4891 96.991 45.863 96.2992 44.9736C95.8008 44.3358 95.1324 44.1837 94.552 44.3358C94.3292 44.3943 94.1181 44.4938 93.9364 44.6342C93.7546 44.7688 93.6022 44.9385 93.4908 45.1316C93.227 45.588 93.2094 46.1849 93.655 46.77C94.81 48.2913 96.4926 49.2919 98.3277 49.7366C99.5765 50.0409 100.896 50.0877 102.156 49.8595C103.417 49.6313 104.625 49.1398 105.656 48.3557C106.993 47.3493 108.037 45.863 108.523 43.8677C108.869 42.44 108.828 39.0696 108.793 36.7173C108.787 36.1849 108.781 35.705 108.776 35.3481V35.2135C108.705 32.9139 107.832 30.9537 106.407 29.5669C104.982 28.186 102.995 27.3727 100.691 27.3727C96.7506 27.3727 94.2764 29.5026 93.1977 32.2235C92.7814 33.2767 92.5703 34.4236 92.5703 35.5646C92.5703 36.7056 92.7697 37.8525 93.1742 38.8999L93.1801 38.9057ZM105.105 37.6535C104.478 39.3095 103.036 40.5909 100.691 40.5909C98.8319 40.5909 97.5128 39.7425 96.7271 38.5371C96.2816 37.8525 96.006 37.045 95.9122 36.22C95.8125 35.3949 95.8946 34.5406 96.1408 33.7565C96.6099 32.2878 97.6828 31.0415 99.3596 30.6085C101.693 29.9999 103.405 30.8308 104.413 32.2352C104.959 32.99 105.293 33.9087 105.41 34.8566C105.527 35.8045 105.428 36.7817 105.099 37.6594L105.105 37.6535ZM112.446 38.935C113.46 41.5915 115.782 43.6571 119.352 43.6571C120.302 43.6571 121.193 43.4991 122.026 43.1831C122.847 42.873 123.603 42.399 124.289 41.7729L124.588 41.5038V41.9075C124.611 42.7033 125.057 43.2124 125.62 43.4347C125.848 43.5225 126.089 43.5693 126.335 43.5693C126.581 43.5693 126.822 43.5225 127.044 43.423C127.59 43.1948 128.012 42.674 128.012 41.8665V35.2486C127.942 33.0193 127.044 31.0356 125.596 29.6196C124.16 28.2211 122.184 27.3727 119.927 27.3727C116.022 27.3727 113.554 29.5201 112.481 32.2586C112.065 33.3177 111.859 34.4645 111.854 35.6056C111.854 36.7466 112.047 37.8876 112.452 38.9409L112.446 38.935ZM124.324 37.5775C123.685 39.2685 122.225 40.5851 119.95 40.5851C117.675 40.5851 116.145 39.2627 115.494 37.5716C115.242 36.9163 115.119 36.2141 115.119 35.5061C115.119 34.7981 115.248 34.0901 115.494 33.4406C116.145 31.7554 117.629 30.4329 119.95 30.4329C122.272 30.4329 123.691 31.7554 124.33 33.4406C124.576 34.0901 124.699 34.7981 124.699 35.5061C124.699 36.2141 124.576 36.9221 124.33 37.5716L124.324 37.5775ZM106.172 37.7296L106.266 37.2615C106.237 37.4195 106.208 37.5775 106.172 37.7296Z" fill="#04BBEE"/>
<path fill-rule="evenodd" clip-rule="evenodd" d="M57.7849 43.6278C57.8846 43.6454 57.9901 43.6571 58.0957 43.6571H64.8381C65.2954 43.6571 65.7292 43.6161 66.1279 43.54C66.5501 43.4581 66.937 43.3411 67.3005 43.1831C67.6757 43.0251 68.0217 42.8262 68.3265 42.598C68.649 42.3639 68.9363 42.0948 69.1825 41.8022C69.3174 41.6442 69.4405 41.4804 69.5577 41.299C69.675 41.1176 69.7805 40.9362 69.8685 40.7548C69.9623 40.5675 70.0385 40.3745 70.1089 40.1755C70.1792 39.9766 70.232 39.7776 70.2789 39.5728C70.3199 39.3739 70.3492 39.1691 70.3668 38.9701C70.3844 38.7653 70.3903 38.5605 70.3844 38.3616C70.3786 38.1626 70.3551 37.9637 70.3258 37.7647C70.2906 37.5716 70.2496 37.3785 70.1909 37.1913C70.1147 36.9397 70.0151 36.6939 69.8919 36.4657C69.7747 36.2375 69.6281 36.021 69.4698 35.8221C69.3232 35.6407 69.1591 35.471 68.9773 35.313C68.8014 35.1609 68.608 35.0204 68.3969 34.8976L68.1975 34.7805L68.3617 34.6167C68.4203 34.5582 68.479 34.4938 68.5435 34.4236C68.6021 34.3592 68.6549 34.289 68.7076 34.2188C68.7721 34.131 68.8366 34.0433 68.8894 33.9555C68.9421 33.8677 68.9949 33.7741 69.0477 33.6805C69.1297 33.5166 69.206 33.3469 69.2646 33.1714C69.3232 32.9959 69.3701 32.8145 69.4053 32.6331C69.4405 32.4458 69.4581 32.2586 69.4698 32.0714C69.4757 31.8841 69.4698 31.691 69.4522 31.4979C69.4346 31.3107 69.4053 31.1293 69.3584 30.942C69.3174 30.7548 69.2587 30.5734 69.1884 30.3979C69.118 30.2223 69.0418 30.0468 68.9539 29.8771C68.8601 29.7074 68.7604 29.5436 68.649 29.3856C68.5435 29.2393 68.4321 29.0989 68.3089 28.9701C68.1917 28.8414 68.0568 28.7127 67.922 28.5956C67.7871 28.4786 67.6406 28.3674 67.4881 28.268C67.3416 28.1685 67.1832 28.0749 67.0191 27.9929C66.6849 27.8174 66.2804 27.6945 65.8289 27.6009C65.3775 27.5073 64.8732 27.4488 64.3573 27.4137C63.9293 27.3844 63.2023 27.3727 62.4343 27.3727C61.3086 27.3727 60.0774 27.3844 59.4676 27.3961H59.3679C58.9399 27.4078 58.5295 27.4195 58.1074 27.4195C58.0253 27.4195 57.9491 27.4195 57.8729 27.4371C57.7967 27.4488 57.7204 27.4663 57.6442 27.4839C57.568 27.5073 57.4977 27.5307 57.4273 27.5658C57.3569 27.595 57.2924 27.636 57.228 27.677C57.1635 27.7179 57.1048 27.7647 57.0462 27.8174C56.9934 27.8642 56.9407 27.9227 56.8879 27.9812C56.841 28.0398 56.7941 28.0983 56.7589 28.1685C56.7179 28.2328 56.6886 28.3031 56.6592 28.3733L56.6417 28.4142L56.542 42.0948C56.542 42.2001 56.5537 42.3054 56.5713 42.4049C56.5889 42.5044 56.6182 42.6038 56.6592 42.6974C56.7003 42.7911 56.7472 42.8847 56.8 42.9666C56.8586 43.0485 56.9231 43.1305 56.9934 43.2007C57.0697 43.2709 57.1459 43.3411 57.228 43.3938C57.3159 43.4523 57.4038 43.4991 57.4977 43.5342C57.5915 43.5693 57.6911 43.6044 57.7908 43.622L57.7849 43.6278ZM60.3412 40.7021L59.6552 40.6904V36.6062H64.8381C65.055 36.6062 65.2602 36.6179 65.4478 36.6471C65.6472 36.6764 65.8289 36.7173 65.9931 36.77C66.1631 36.8285 66.3155 36.8987 66.4562 36.9748C66.6028 37.0626 66.7318 37.162 66.8373 37.2674C66.896 37.3259 66.9546 37.3902 67.0074 37.4605C67.0601 37.5307 67.107 37.6009 67.1422 37.677C67.1832 37.753 67.2184 37.835 67.2477 37.911C67.2771 37.9929 67.3005 38.0807 67.3181 38.1626C67.3357 38.2446 67.3474 38.3265 67.3474 38.4142C67.3474 38.4962 67.3474 38.5839 67.3474 38.6717C67.3474 38.7595 67.3298 38.8414 67.3122 38.9292C67.2946 39.0169 67.2712 39.1047 67.2477 39.1866C67.2067 39.3212 67.1481 39.4558 67.0777 39.5845C67.0074 39.7132 66.9253 39.8303 66.8373 39.9356C66.7494 40.0409 66.6497 40.1404 66.5383 40.2223C66.4328 40.3042 66.3155 40.3745 66.1924 40.433C65.9989 40.5207 65.7292 40.5851 65.4068 40.6261C65.1019 40.667 64.7384 40.6963 64.3632 40.708C64.0466 40.7197 63.4134 40.7255 62.7274 40.7197C61.7893 40.7197 60.7575 40.708 60.3529 40.7021H60.3412ZM60.4057 33.6571L59.6611 33.6395V30.3862H64.4335C64.5801 30.3862 64.7149 30.392 64.8498 30.4096C64.9846 30.4271 65.1078 30.4505 65.225 30.4798C65.3423 30.509 65.4537 30.55 65.5533 30.591C65.6589 30.6378 65.7527 30.6904 65.8348 30.7548C65.8993 30.8016 65.9579 30.8543 66.0107 30.9069C66.0634 30.9596 66.1162 31.024 66.1572 31.0825C66.2041 31.1468 66.2393 31.217 66.2745 31.2814C66.3097 31.3516 66.339 31.4277 66.3566 31.5038C66.3742 31.574 66.3918 31.6501 66.4035 31.7203C66.4152 31.7905 66.4211 31.8666 66.4211 31.9426C66.4211 32.0187 66.4211 32.0948 66.4093 32.1708C66.4035 32.2469 66.3859 32.323 66.3683 32.399C66.3507 32.4868 66.3214 32.5687 66.2921 32.6448C66.2628 32.7267 66.2276 32.8028 66.1865 32.873C66.1514 32.9432 66.1045 33.0076 66.0576 33.0602C66.0107 33.1187 65.9579 33.1714 65.9051 33.2124C65.5475 33.4874 64.5097 33.6103 63.3841 33.6571C62.2877 33.7039 61.0975 33.6805 60.3998 33.6571H60.4057Z" fill="#04BBEE"/>
<path fill-rule="evenodd" clip-rule="evenodd" d="M82.7783 34.2187C82.4441 33.8852 81.9868 33.6804 81.4826 33.6804C80.9783 33.6804 80.5152 33.8852 80.1869 34.2187C79.8527 34.5464 79.6475 35.0087 79.6475 35.5119C79.6475 36.0151 79.8527 36.4774 80.181 36.8051C80.5152 37.1386 80.9725 37.3434 81.4767 37.3434C81.9809 37.3434 82.4441 37.1386 82.7724 36.8109C83.1066 36.4774 83.3118 36.021 83.3118 35.5178C83.3118 35.0145 83.1066 34.5523 82.7724 34.2246L82.7783 34.2187Z" fill="#04BBEE"/>
<path fill-rule="evenodd" clip-rule="evenodd" d="M84.6075 27.9695C83.646 27.5716 82.5906 27.3492 81.4825 27.3492C80.3744 27.3492 79.3191 27.5716 78.3576 27.9695C77.3609 28.3849 76.458 28.9876 75.7017 29.7425C74.9453 30.4973 74.3415 31.3925 73.9252 32.3931C73.5265 33.3528 73.3037 34.406 73.3037 35.5119C73.3037 36.6178 73.5265 37.6711 73.9252 38.6307C74.3415 39.6254 74.9453 40.5265 75.7017 41.2814C76.458 42.0362 77.355 42.6389 78.3576 43.0543C79.3191 43.4522 80.3744 43.6746 81.4825 43.6746C82.5906 43.6746 83.646 43.4522 84.6075 43.0543C85.6042 42.6389 86.5071 42.0362 87.2634 41.2814C88.0197 40.5265 88.6236 39.6313 89.0399 38.6307C89.4386 37.6711 89.6613 36.6178 89.6613 35.5119C89.6613 34.406 89.4386 33.3528 89.0399 32.3931C88.6236 31.3984 88.0197 30.4973 87.2634 29.7425C86.5071 28.9876 85.61 28.3849 84.6075 27.9695ZM81.4825 30.6436C82.831 30.6436 84.0505 31.1877 84.9299 32.0713C85.3814 32.5219 85.739 33.0543 85.9911 33.6512C86.2315 34.2246 86.3605 34.8566 86.3605 35.5119C86.3605 36.8577 85.8153 38.0748 84.9299 38.9525C84.4785 39.4031 83.945 39.76 83.347 40.0116C82.7724 40.2515 82.1392 40.3803 81.4825 40.3803C80.134 40.3803 78.9146 39.8361 78.0351 38.9525C77.5837 38.502 77.226 37.9695 76.9739 37.3726C76.7335 36.7992 76.6046 36.1673 76.6046 35.5119C76.6046 34.1661 77.1498 32.949 78.0351 32.0713C78.4866 31.6207 79.0201 31.2638 79.6181 31.0122C80.1927 30.7723 80.8259 30.6436 81.4825 30.6436Z" fill="#04BBEE"/>
</g>
<defs>
<clipPath id="clip0_211_452">
<rect width="128" height="50" fill="white"/>
</clipPath>
</defs>
</svg>
