<svg width="1260" height="1258" viewBox="0 0 1260 1258" fill="none" xmlns="http://www.w3.org/2000/svg">
<g opacity="0.2">
<path fill-rule="evenodd" clip-rule="evenodd" d="M870.567 47.6315C796.413 17.0666 715.108 0 629.762 0C544.415 0 463.11 16.9115 388.957 47.6315C312.005 79.4375 242.67 126.138 184.529 184.165C126.543 242.036 79.7501 311.234 47.7257 388.189C17.1004 462.196 0 543.34 0 628.518C0 713.696 16.945 794.84 47.7257 868.848C79.5947 945.647 126.388 1014.84 184.529 1072.87C242.515 1130.74 311.849 1177.44 388.957 1209.4C463.11 1239.97 544.415 1257.04 629.762 1257.04C715.108 1257.04 796.413 1240.12 870.567 1209.4C947.519 1177.6 1016.85 1130.9 1074.99 1072.87C1132.98 1014.84 1179.77 945.803 1211.8 868.848C1242.42 794.84 1259.52 713.696 1259.52 628.518C1259.52 543.34 1242.58 462.196 1211.8 388.189C1179.93 311.389 1133.14 242.191 1074.99 184.165C1016.85 126.138 947.674 79.5926 870.567 47.6315ZM835.278 132.81C901.037 159.961 960.266 199.835 1009.7 249.173C1059.14 298.511 1099.09 357.624 1126.3 423.253C1152.57 486.399 1167.03 555.752 1167.03 628.208C1167.03 700.664 1152.57 770.016 1126.3 833.163C1099.09 898.792 1059.14 957.904 1009.7 1007.24C960.266 1056.58 901.037 1096.45 835.278 1123.61C772.006 1149.83 702.516 1164.26 629.917 1164.26C557.318 1164.26 487.828 1149.83 424.557 1123.61C358.798 1096.45 299.568 1056.58 250.132 1007.24C200.697 957.904 160.744 898.792 133.539 833.163C107.266 770.016 92.8086 700.664 92.8086 628.208C92.8086 555.752 107.266 486.399 133.539 423.253C160.744 357.624 200.697 298.511 250.132 249.173C299.568 199.835 358.798 159.961 424.557 132.81C487.828 106.589 557.318 92.1599 629.917 92.1599C702.516 92.1599 772.006 106.589 835.278 132.81Z" fill="#BACEE2"/>
<path fill-rule="evenodd" clip-rule="evenodd" d="M778.075 270.894C732.526 251.966 682.469 241.571 629.924 241.571C577.379 241.571 527.321 251.966 481.772 270.894C434.357 290.443 391.761 319.146 356.006 354.831C320.251 390.516 291.491 433.028 271.903 480.349C253.093 525.808 242.521 575.767 242.521 628.208C242.521 680.649 252.937 730.608 271.903 776.067C291.491 823.388 320.251 865.9 356.006 901.585C391.761 937.27 434.357 965.973 481.772 985.522C527.321 1004.45 577.379 1014.85 629.924 1014.85C682.469 1014.85 732.526 1004.45 778.075 985.522C825.49 965.973 868.086 937.27 903.841 901.585C939.597 865.9 968.357 823.388 987.944 776.067C1006.91 730.608 1017.33 680.649 1017.33 628.208C1017.33 575.767 1006.91 525.808 987.944 480.349C968.357 433.028 939.597 390.516 903.841 354.831C868.086 319.146 825.49 290.443 778.075 270.894ZM741.854 357.934C777.765 372.829 810.1 394.55 836.994 421.391C863.888 448.232 885.808 480.504 900.577 516.344C914.879 550.787 922.807 588.644 922.807 628.208C922.807 667.772 914.879 705.629 900.577 740.072C885.653 775.912 863.888 808.184 836.994 835.025C810.1 861.866 777.765 883.742 741.854 898.482C707.342 912.756 669.41 920.668 629.768 920.668C590.126 920.668 552.195 912.756 517.683 898.482C481.772 883.587 449.437 861.866 422.542 835.025C395.493 808.028 373.728 775.912 358.96 740.072C344.658 705.629 336.729 667.772 336.729 628.208C336.729 588.644 344.658 550.787 358.96 516.344C373.884 480.504 395.648 448.232 422.542 421.391C449.592 394.395 481.772 372.674 517.683 357.934C552.195 343.66 590.126 335.748 629.768 335.748C669.41 335.748 707.342 343.66 741.854 357.934Z" fill="#BACEE2"/>
<path fill-rule="evenodd" clip-rule="evenodd" d="M687.272 489.813C669.549 482.521 650.272 478.487 629.907 478.487C609.542 478.487 590.11 482.521 572.543 489.813C554.199 497.415 537.721 508.586 523.885 522.395C510.049 536.203 498.856 552.649 491.239 570.957C483.932 588.644 479.89 607.883 479.89 628.208C479.89 648.533 483.932 667.771 491.239 685.304C498.856 703.611 510.049 720.057 523.885 733.866L525.284 735.262C538.809 748.605 554.821 759.311 572.543 766.603C590.266 773.895 609.542 777.929 629.907 777.929C650.272 777.929 669.705 773.895 687.272 766.603C704.994 759.311 721.006 748.605 734.531 735.417L735.93 733.866C749.766 720.057 760.959 703.611 768.576 685.304C775.883 667.771 779.925 648.378 779.925 628.208C779.925 608.038 775.883 588.489 768.576 570.957C760.959 552.649 749.766 536.203 735.93 522.395C722.094 508.586 705.616 497.415 687.272 489.813ZM651.827 574.991C658.978 577.939 665.352 582.283 670.638 587.558C675.923 592.833 680.276 599.195 683.074 606.332C685.872 613.158 687.427 620.605 687.427 628.363C687.427 636.121 685.872 643.568 683.074 650.394C680.12 657.531 675.923 663.893 670.638 669.168L667.217 672.581L666.907 672.271C662.398 675.995 657.268 679.253 651.672 681.425C644.831 684.217 637.369 685.769 629.597 685.769C621.824 685.769 614.362 684.217 607.521 681.425C601.925 679.097 596.795 675.995 592.287 672.271L591.976 672.581L588.556 669.168C583.27 663.893 579.073 657.531 576.119 650.394C573.321 643.568 571.766 636.121 571.766 628.363C571.766 620.605 573.321 613.158 576.119 606.332C579.073 599.195 583.425 592.833 588.711 587.558C593.997 582.283 600.37 577.939 607.521 575.146C614.362 572.353 621.824 570.802 629.597 570.802C637.369 570.802 644.831 572.353 651.672 575.146L651.827 574.991Z" fill="#BACEE2"/>
</g>
</svg>
